<svg width="784" height="82" viewBox="0 0 784 82" fill="none" xmlns="http://www.w3.org/2000/svg">
<rect x="0.25" y="23.25" width="35.5" height="35.5" rx="7.75" fill="white"/>
<path d="M9.6665 47.6667H26.3332M13.8332 39.3333H17.1665M19.6665 47.6667H24.6665V41C24.6665 40.2234 24.6664 39.8351 24.5396 39.5288C24.3704 39.1205 24.046 38.796 23.6376 38.6269C23.3314 38.5 22.9433 38.5 22.1667 38.5C21.3901 38.5 21.0018 38.5 20.6956 38.6269C20.2872 38.796 19.9625 39.1205 19.7934 39.5288C19.6665 39.8351 19.6665 40.2234 19.6665 41V47.6667ZM19.6665 47.6667V36.1666C19.6665 35.2332 19.6667 34.7666 19.485 34.41C19.3252 34.0964 19.0699 33.8414 18.7563 33.6817C18.3998 33.5 17.9334 33.5 17 33.5H14C13.0666 33.5 12.5995 33.5 12.243 33.6817C11.9294 33.8414 11.6746 34.0964 11.5148 34.41C11.3332 34.7666 11.3332 35.2332 11.3332 36.1666V47.6667H19.6665ZM13.8332 36.8333L17.1665 36.8333" stroke="#0B0B0B" stroke-linecap="round" stroke-linejoin="round"/>
<rect x="0.25" y="23.25" width="35.5" height="35.5" rx="7.75" stroke="#ECECEC" stroke-width="0.5"/>
<path d="M58.258 26.002C58.7807 26.0953 59.224 26.3707 59.588 26.828C59.952 27.2853 60.134 27.8033 60.134 28.382C60.134 28.8767 60.0033 29.3247 59.742 29.726C59.49 30.118 59.1213 30.4307 58.636 30.664C58.1507 30.888 57.586 31 56.942 31H53.05V21.27H56.76C57.4227 21.27 57.992 21.382 58.468 21.606C58.944 21.83 59.3033 22.1333 59.546 22.516C59.7887 22.8893 59.91 23.3093 59.91 23.776C59.91 24.336 59.7607 24.8027 59.462 25.176C59.1633 25.5493 58.762 25.8247 58.258 26.002ZM54.646 25.358H56.62C57.1427 25.358 57.5487 25.2413 57.838 25.008C58.1367 24.7653 58.286 24.42 58.286 23.972C58.286 23.5333 58.1367 23.1927 57.838 22.95C57.5487 22.698 57.1427 22.572 56.62 22.572H54.646V25.358ZM56.802 29.698C57.3433 29.698 57.768 29.5673 58.076 29.306C58.384 29.0447 58.538 28.6807 58.538 28.214C58.538 27.738 58.3747 27.36 58.048 27.08C57.7213 26.8 57.2873 26.66 56.746 26.66H54.646V29.698H56.802ZM61.3364 27.108C61.3364 26.3333 61.495 25.6473 61.8124 25.05C62.139 24.4527 62.5777 23.9907 63.1284 23.664C63.6884 23.328 64.3044 23.16 64.9764 23.16C65.583 23.16 66.1104 23.2813 66.5584 23.524C67.0157 23.7573 67.3797 24.0513 67.6504 24.406V23.286H69.2604V31H67.6504V29.852C67.3797 30.216 67.011 30.5193 66.5444 30.762C66.0777 31.0047 65.5457 31.126 64.9484 31.126C64.2857 31.126 63.679 30.958 63.1284 30.622C62.5777 30.2767 62.139 29.8007 61.8124 29.194C61.495 28.578 61.3364 27.8827 61.3364 27.108ZM67.6504 27.136C67.6504 26.604 67.5384 26.142 67.3144 25.75C67.0997 25.358 66.815 25.0593 66.4604 24.854C66.1057 24.6487 65.723 24.546 65.3124 24.546C64.9017 24.546 64.519 24.6487 64.1644 24.854C63.8097 25.05 63.5204 25.344 63.2964 25.736C63.0817 26.1187 62.9744 26.576 62.9744 27.108C62.9744 27.64 63.0817 28.1067 63.2964 28.508C63.5204 28.9093 63.8097 29.2173 64.1644 29.432C64.5284 29.6373 64.911 29.74 65.3124 29.74C65.723 29.74 66.1057 29.6373 66.4604 29.432C66.815 29.2267 67.0997 28.928 67.3144 28.536C67.5384 28.1347 67.6504 27.668 67.6504 27.136ZM70.8246 27.136C70.8246 26.3427 70.9833 25.6473 71.3006 25.05C71.6273 24.4433 72.0753 23.9767 72.6446 23.65C73.214 23.3233 73.8673 23.16 74.6046 23.16C75.538 23.16 76.308 23.384 76.9146 23.832C77.5306 24.2707 77.946 24.9007 78.1606 25.722H76.4386C76.2986 25.3393 76.0746 25.0407 75.7666 24.826C75.4586 24.6113 75.0713 24.504 74.6046 24.504C73.9513 24.504 73.4286 24.7373 73.0366 25.204C72.654 25.6613 72.4626 26.3053 72.4626 27.136C72.4626 27.9667 72.654 28.6153 73.0366 29.082C73.4286 29.5487 73.9513 29.782 74.6046 29.782C75.5286 29.782 76.14 29.376 76.4386 28.564H78.1606C77.9366 29.348 77.5166 29.9733 76.9006 30.44C76.2846 30.8973 75.5193 31.126 74.6046 31.126C73.8673 31.126 73.214 30.9627 72.6446 30.636C72.0753 30.3 71.6273 29.8333 71.3006 29.236C70.9833 28.6293 70.8246 27.9293 70.8246 27.136ZM83.7412 23.16C84.3292 23.16 84.8518 23.286 85.3092 23.538C85.7758 23.79 86.1398 24.1633 86.4012 24.658C86.6718 25.1527 86.8072 25.75 86.8072 26.45V31H85.2252V26.688C85.2252 25.9973 85.0525 25.47 84.7072 25.106C84.3618 24.7327 83.8905 24.546 83.2932 24.546C82.6958 24.546 82.2198 24.7327 81.8652 25.106C81.5198 25.47 81.3472 25.9973 81.3472 26.688V31H79.7512V20.64H81.3472V24.182C81.6178 23.8553 81.9585 23.6033 82.3692 23.426C82.7892 23.2487 83.2465 23.16 83.7412 23.16ZM95.913 26.954C95.913 27.2433 95.8943 27.5047 95.857 27.738H89.963C90.0096 28.354 90.2383 28.8487 90.649 29.222C91.0596 29.5953 91.5636 29.782 92.161 29.782C93.0196 29.782 93.6263 29.4227 93.981 28.704H95.703C95.4696 29.4133 95.045 29.9967 94.429 30.454C93.8223 30.902 93.0663 31.126 92.161 31.126C91.4236 31.126 90.761 30.9627 90.173 30.636C89.5943 30.3 89.137 29.8333 88.801 29.236C88.4743 28.6293 88.311 27.9293 88.311 27.136C88.311 26.3427 88.4696 25.6473 88.787 25.05C89.1136 24.4433 89.5663 23.9767 90.145 23.65C90.733 23.3233 91.405 23.16 92.161 23.16C92.889 23.16 93.5376 23.3187 94.107 23.636C94.6763 23.9533 95.1196 24.4013 95.437 24.98C95.7543 25.5493 95.913 26.2073 95.913 26.954ZM94.247 26.45C94.2376 25.862 94.0276 25.3907 93.617 25.036C93.2063 24.6813 92.6976 24.504 92.091 24.504C91.5403 24.504 91.069 24.6813 90.677 25.036C90.285 25.3813 90.0516 25.8527 89.977 26.45H94.247ZM99.0796 20.64V31H97.4836V20.64H99.0796ZM104.521 31.126C103.793 31.126 103.135 30.9627 102.547 30.636C101.959 30.3 101.497 29.8333 101.161 29.236C100.825 28.6293 100.657 27.9293 100.657 27.136C100.657 26.352 100.83 25.6567 101.175 25.05C101.52 24.4433 101.992 23.9767 102.589 23.65C103.186 23.3233 103.854 23.16 104.591 23.16C105.328 23.16 105.996 23.3233 106.593 23.65C107.19 23.9767 107.662 24.4433 108.007 25.05C108.352 25.6567 108.525 26.352 108.525 27.136C108.525 27.92 108.348 28.6153 107.993 29.222C107.638 29.8287 107.153 30.3 106.537 30.636C105.93 30.9627 105.258 31.126 104.521 31.126ZM104.521 29.74C104.932 29.74 105.314 29.642 105.669 29.446C106.033 29.25 106.327 28.956 106.551 28.564C106.775 28.172 106.887 27.696 106.887 27.136C106.887 26.576 106.78 26.1047 106.565 25.722C106.35 25.33 106.066 25.036 105.711 24.84C105.356 24.644 104.974 24.546 104.563 24.546C104.152 24.546 103.77 24.644 103.415 24.84C103.07 25.036 102.794 25.33 102.589 25.722C102.384 26.1047 102.281 26.576 102.281 27.136C102.281 27.9667 102.491 28.6107 102.911 29.068C103.34 29.516 103.877 29.74 104.521 29.74ZM111.699 24.406C111.932 24.014 112.24 23.7107 112.623 23.496C113.015 23.272 113.477 23.16 114.009 23.16V24.812H113.603C112.977 24.812 112.501 24.9707 112.175 25.288C111.857 25.6053 111.699 26.156 111.699 26.94V31H110.103V23.286H111.699V24.406ZM119.925 22.264C119.635 22.264 119.393 22.166 119.197 21.97C119.001 21.774 118.903 21.5313 118.903 21.242C118.903 20.9527 119.001 20.71 119.197 20.514C119.393 20.318 119.635 20.22 119.925 20.22C120.205 20.22 120.443 20.318 120.639 20.514C120.835 20.71 120.933 20.9527 120.933 21.242C120.933 21.5313 120.835 21.774 120.639 21.97C120.443 22.166 120.205 22.264 119.925 22.264ZM120.709 23.286V31H119.113V23.286H120.709ZM126.696 23.16C127.303 23.16 127.844 23.286 128.32 23.538C128.805 23.79 129.183 24.1633 129.454 24.658C129.725 25.1527 129.86 25.75 129.86 26.45V31H128.278V26.688C128.278 25.9973 128.105 25.47 127.76 25.106C127.415 24.7327 126.943 24.546 126.346 24.546C125.749 24.546 125.273 24.7327 124.918 25.106C124.573 25.47 124.4 25.9973 124.4 26.688V31H122.804V23.286H124.4V24.168C124.661 23.8507 124.993 23.6033 125.394 23.426C125.805 23.2487 126.239 23.16 126.696 23.16ZM140.74 26.002C141.263 26.0953 141.706 26.3707 142.07 26.828C142.434 27.2853 142.616 27.8033 142.616 28.382C142.616 28.8767 142.486 29.3247 142.224 29.726C141.972 30.118 141.604 30.4307 141.118 30.664C140.633 30.888 140.068 31 139.424 31H135.532V21.27H139.242C139.905 21.27 140.474 21.382 140.95 21.606C141.426 21.83 141.786 22.1333 142.028 22.516C142.271 22.8893 142.392 23.3093 142.392 23.776C142.392 24.336 142.243 24.8027 141.944 25.176C141.646 25.5493 141.244 25.8247 140.74 26.002ZM137.128 25.358H139.102C139.625 25.358 140.031 25.2413 140.32 25.008C140.619 24.7653 140.768 24.42 140.768 23.972C140.768 23.5333 140.619 23.1927 140.32 22.95C140.031 22.698 139.625 22.572 139.102 22.572H137.128V25.358ZM139.284 29.698C139.826 29.698 140.25 29.5673 140.558 29.306C140.866 29.0447 141.02 28.6807 141.02 28.214C141.02 27.738 140.857 27.36 140.53 27.08C140.204 26.8 139.77 26.66 139.228 26.66H137.128V29.698H139.284ZM145.163 22.264C144.873 22.264 144.631 22.166 144.435 21.97C144.239 21.774 144.141 21.5313 144.141 21.242C144.141 20.9527 144.239 20.71 144.435 20.514C144.631 20.318 144.873 20.22 145.163 20.22C145.443 20.22 145.681 20.318 145.877 20.514C146.073 20.71 146.171 20.9527 146.171 21.242C146.171 21.5313 146.073 21.774 145.877 21.97C145.681 22.166 145.443 22.264 145.163 22.264ZM145.947 23.286V31H144.351V23.286H145.947ZM151.388 31.126C150.66 31.126 150.002 30.9627 149.414 30.636C148.826 30.3 148.364 29.8333 148.028 29.236C147.692 28.6293 147.524 27.9293 147.524 27.136C147.524 26.352 147.697 25.6567 148.042 25.05C148.388 24.4433 148.859 23.9767 149.456 23.65C150.054 23.3233 150.721 23.16 151.458 23.16C152.196 23.16 152.863 23.3233 153.46 23.65C154.058 23.9767 154.529 24.4433 154.874 25.05C155.22 25.6567 155.392 26.352 155.392 27.136C155.392 27.92 155.215 28.6153 154.86 29.222C154.506 29.8287 154.02 30.3 153.404 30.636C152.798 30.9627 152.126 31.126 151.388 31.126ZM151.388 29.74C151.799 29.74 152.182 29.642 152.536 29.446C152.9 29.25 153.194 28.956 153.418 28.564C153.642 28.172 153.754 27.696 153.754 27.136C153.754 26.576 153.647 26.1047 153.432 25.722C153.218 25.33 152.933 25.036 152.578 24.84C152.224 24.644 151.841 24.546 151.43 24.546C151.02 24.546 150.637 24.644 150.282 24.84C149.937 25.036 149.662 25.33 149.456 25.722C149.251 26.1047 149.148 26.576 149.148 27.136C149.148 27.9667 149.358 28.6107 149.778 29.068C150.208 29.516 150.744 29.74 151.388 29.74ZM156.438 27.136C156.438 26.3427 156.597 25.6473 156.914 25.05C157.241 24.4433 157.689 23.9767 158.258 23.65C158.827 23.3233 159.481 23.16 160.218 23.16C161.151 23.16 161.921 23.384 162.528 23.832C163.144 24.2707 163.559 24.9007 163.774 25.722H162.052C161.912 25.3393 161.688 25.0407 161.38 24.826C161.072 24.6113 160.685 24.504 160.218 24.504C159.565 24.504 159.042 24.7373 158.65 25.204C158.267 25.6613 158.076 26.3053 158.076 27.136C158.076 27.9667 158.267 28.6153 158.65 29.082C159.042 29.5487 159.565 29.782 160.218 29.782C161.142 29.782 161.753 29.376 162.052 28.564H163.774C163.55 29.348 163.13 29.9733 162.514 30.44C161.898 30.8973 161.133 31.126 160.218 31.126C159.481 31.126 158.827 30.9627 158.258 30.636C157.689 30.3 157.241 29.8333 156.914 29.236C156.597 28.6293 156.438 27.9293 156.438 27.136ZM169.354 23.16C169.942 23.16 170.465 23.286 170.922 23.538C171.389 23.79 171.753 24.1633 172.014 24.658C172.285 25.1527 172.42 25.75 172.42 26.45V31H170.838V26.688C170.838 25.9973 170.666 25.47 170.32 25.106C169.975 24.7327 169.504 24.546 168.906 24.546C168.309 24.546 167.833 24.7327 167.478 25.106C167.133 25.47 166.96 25.9973 166.96 26.688V31H165.364V20.64H166.96V24.182C167.231 23.8553 167.572 23.6033 167.982 23.426C168.402 23.2487 168.86 23.16 169.354 23.16ZM181.526 26.954C181.526 27.2433 181.508 27.5047 181.47 27.738H175.576C175.623 28.354 175.852 28.8487 176.262 29.222C176.673 29.5953 177.177 29.782 177.774 29.782C178.633 29.782 179.24 29.4227 179.594 28.704H181.316C181.083 29.4133 180.658 29.9967 180.042 30.454C179.436 30.902 178.68 31.126 177.774 31.126C177.037 31.126 176.374 30.9627 175.786 30.636C175.208 30.3 174.75 29.8333 174.414 29.236C174.088 28.6293 173.924 27.9293 173.924 27.136C173.924 26.3427 174.083 25.6473 174.4 25.05C174.727 24.4433 175.18 23.9767 175.758 23.65C176.346 23.3233 177.018 23.16 177.774 23.16C178.502 23.16 179.151 23.3187 179.72 23.636C180.29 23.9533 180.733 24.4013 181.05 24.98C181.368 25.5493 181.526 26.2073 181.526 26.954ZM179.86 26.45C179.851 25.862 179.641 25.3907 179.23 25.036C178.82 24.6813 178.311 24.504 177.704 24.504C177.154 24.504 176.682 24.6813 176.29 25.036C175.898 25.3813 175.665 25.8527 175.59 26.45H179.86ZM192.435 23.16C193.042 23.16 193.583 23.286 194.059 23.538C194.544 23.79 194.922 24.1633 195.193 24.658C195.473 25.1527 195.613 25.75 195.613 26.45V31H194.031V26.688C194.031 25.9973 193.858 25.47 193.513 25.106C193.168 24.7327 192.696 24.546 192.099 24.546C191.502 24.546 191.026 24.7327 190.671 25.106C190.326 25.47 190.153 25.9973 190.153 26.688V31H188.571V26.688C188.571 25.9973 188.398 25.47 188.053 25.106C187.708 24.7327 187.236 24.546 186.639 24.546C186.042 24.546 185.566 24.7327 185.211 25.106C184.866 25.47 184.693 25.9973 184.693 26.688V31H183.097V23.286H184.693V24.168C184.954 23.8507 185.286 23.6033 185.687 23.426C186.088 23.2487 186.518 23.16 186.975 23.16C187.591 23.16 188.142 23.2907 188.627 23.552C189.112 23.8133 189.486 24.1913 189.747 24.686C189.98 24.2193 190.344 23.8507 190.839 23.58C191.334 23.3 191.866 23.16 192.435 23.16ZM198.456 22.264C198.166 22.264 197.924 22.166 197.728 21.97C197.532 21.774 197.434 21.5313 197.434 21.242C197.434 20.9527 197.532 20.71 197.728 20.514C197.924 20.318 198.166 20.22 198.456 20.22C198.736 20.22 198.974 20.318 199.17 20.514C199.366 20.71 199.464 20.9527 199.464 21.242C199.464 21.5313 199.366 21.774 199.17 21.97C198.974 22.166 198.736 22.264 198.456 22.264ZM199.24 23.286V31H197.644V23.286H199.24ZM204.135 31.126C203.528 31.126 202.982 31.0187 202.497 30.804C202.021 30.58 201.643 30.2813 201.363 29.908C201.083 29.5253 200.934 29.1007 200.915 28.634H202.567C202.595 28.9607 202.749 29.236 203.029 29.46C203.318 29.6747 203.678 29.782 204.107 29.782C204.555 29.782 204.9 29.698 205.143 29.53C205.395 29.3527 205.521 29.1287 205.521 28.858C205.521 28.5687 205.381 28.354 205.101 28.214C204.83 28.074 204.396 27.92 203.799 27.752C203.22 27.5933 202.749 27.4393 202.385 27.29C202.021 27.1407 201.704 26.912 201.433 26.604C201.172 26.296 201.041 25.89 201.041 25.386C201.041 24.9753 201.162 24.602 201.405 24.266C201.648 23.9207 201.993 23.65 202.441 23.454C202.898 23.258 203.421 23.16 204.009 23.16C204.886 23.16 205.591 23.384 206.123 23.832C206.664 24.2707 206.954 24.8727 206.991 25.638H205.395C205.367 25.2927 205.227 25.0173 204.975 24.812C204.723 24.6067 204.382 24.504 203.953 24.504C203.533 24.504 203.211 24.5833 202.987 24.742C202.763 24.9007 202.651 25.1107 202.651 25.372C202.651 25.5773 202.726 25.75 202.875 25.89C203.024 26.03 203.206 26.142 203.421 26.226C203.636 26.3007 203.953 26.3987 204.373 26.52C204.933 26.6693 205.39 26.8233 205.745 26.982C206.109 27.1313 206.422 27.3553 206.683 27.654C206.944 27.9527 207.08 28.3493 207.089 28.844C207.089 29.2827 206.968 29.6747 206.725 30.02C206.482 30.3653 206.137 30.636 205.689 30.832C205.25 31.028 204.732 31.126 204.135 31.126ZM210.676 24.588V28.858C210.676 29.1473 210.741 29.3573 210.872 29.488C211.012 29.6093 211.245 29.67 211.572 29.67H212.552V31H211.292C210.573 31 210.022 30.832 209.64 30.496C209.257 30.16 209.066 29.614 209.066 28.858V24.588H208.156V23.286H209.066V21.368H210.676V23.286H212.552V24.588H210.676ZM215.619 24.406C215.852 24.014 216.16 23.7107 216.543 23.496C216.935 23.272 217.397 23.16 217.929 23.16V24.812H217.523C216.897 24.812 216.421 24.9707 216.095 25.288C215.777 25.6053 215.619 26.156 215.619 26.94V31H214.023V23.286H215.619V24.406ZM226.34 23.286L221.608 34.626H219.956L221.524 30.874L218.486 23.286H220.264L222.434 29.166L224.688 23.286H226.34Z" fill="black"/>
<path d="M58.37 60L54.352 55.548V60H53.078V50.242H54.352V54.764L58.384 50.242H59.994L55.57 55.128L60.036 60H58.37ZM62.1169 51.082C61.8742 51.082 61.6689 50.998 61.5009 50.83C61.3329 50.662 61.2489 50.4567 61.2489 50.214C61.2489 49.9713 61.3329 49.766 61.5009 49.598C61.6689 49.43 61.8742 49.346 62.1169 49.346C62.3502 49.346 62.5462 49.43 62.7049 49.598C62.8729 49.766 62.9569 49.9713 62.9569 50.214C62.9569 50.4567 62.8729 50.662 62.7049 50.83C62.5462 50.998 62.3502 51.082 62.1169 51.082ZM62.7329 52.328V60H61.4589V52.328H62.7329ZM68.6422 52.188C69.5755 52.188 70.3315 52.4727 70.9102 53.042C71.4888 53.602 71.7782 54.414 71.7782 55.478V60H70.5182V55.66C70.5182 54.8947 70.3268 54.3113 69.9442 53.91C69.5615 53.4993 69.0388 53.294 68.3762 53.294C67.7042 53.294 67.1675 53.504 66.7662 53.924C66.3742 54.344 66.1782 54.9553 66.1782 55.758V60H64.9042V52.328H66.1782V53.42C66.4302 53.028 66.7708 52.7247 67.2002 52.51C67.6388 52.2953 68.1195 52.188 68.6422 52.188ZM77.0233 52.202C77.6859 52.202 78.2646 52.3467 78.7593 52.636C79.2633 52.9253 79.6366 53.2893 79.8793 53.728V52.328H81.1673V60.168C81.1673 60.868 81.0179 61.4887 80.7193 62.03C80.4206 62.5807 79.9913 63.01 79.4313 63.318C78.8806 63.626 78.2366 63.78 77.4993 63.78C76.4913 63.78 75.6513 63.542 74.9793 63.066C74.3073 62.59 73.9106 61.9413 73.7893 61.12H75.0493C75.1893 61.5867 75.4786 61.96 75.9173 62.24C76.3559 62.5293 76.8833 62.674 77.4993 62.674C78.1993 62.674 78.7686 62.4547 79.2073 62.016C79.6553 61.5773 79.8793 60.9613 79.8793 60.168V58.558C79.6273 59.006 79.2539 59.3793 78.7593 59.678C78.2646 59.9767 77.6859 60.126 77.0233 60.126C76.3419 60.126 75.7213 59.958 75.1613 59.622C74.6106 59.286 74.1766 58.8147 73.8593 58.208C73.5419 57.6013 73.3833 56.9107 73.3833 56.136C73.3833 55.352 73.5419 54.666 73.8593 54.078C74.1766 53.4807 74.6106 53.0187 75.1613 52.692C75.7213 52.3653 76.3419 52.202 77.0233 52.202ZM79.8793 56.15C79.8793 55.5713 79.7626 55.0673 79.5293 54.638C79.2959 54.2087 78.9786 53.882 78.5773 53.658C78.1853 53.4247 77.7513 53.308 77.2753 53.308C76.7993 53.308 76.3653 53.42 75.9733 53.644C75.5813 53.868 75.2686 54.1947 75.0353 54.624C74.8019 55.0533 74.6853 55.5573 74.6853 56.136C74.6853 56.724 74.8019 57.2373 75.0353 57.676C75.2686 58.1053 75.5813 58.4367 75.9733 58.67C76.3653 58.894 76.7993 59.006 77.2753 59.006C77.7513 59.006 78.1853 58.894 78.5773 58.67C78.9786 58.4367 79.2959 58.1053 79.5293 57.676C79.7626 57.2373 79.8793 56.7287 79.8793 56.15ZM90.1466 60.098C89.5026 60.098 88.9239 59.986 88.4106 59.762C87.9066 59.5287 87.5099 59.2113 87.2206 58.81C86.9313 58.3993 86.7819 57.928 86.7726 57.396H88.1306C88.1773 57.8533 88.3639 58.2407 88.6906 58.558C89.0266 58.866 89.5119 59.02 90.1466 59.02C90.7533 59.02 91.2293 58.8707 91.5746 58.572C91.9293 58.264 92.1066 57.872 92.1066 57.396C92.1066 57.0227 92.0039 56.7193 91.7986 56.486C91.5933 56.2527 91.3366 56.0753 91.0286 55.954C90.7206 55.8327 90.3053 55.702 89.7826 55.562C89.1386 55.394 88.6206 55.226 88.2286 55.058C87.8459 54.89 87.5146 54.6287 87.2346 54.274C86.9639 53.91 86.8286 53.4247 86.8286 52.818C86.8286 52.286 86.9639 51.8147 87.2346 51.404C87.5053 50.9933 87.8833 50.676 88.3686 50.452C88.8633 50.228 89.4279 50.116 90.0626 50.116C90.9773 50.116 91.7239 50.3447 92.3026 50.802C92.8906 51.2593 93.2219 51.866 93.2966 52.622H91.8966C91.8499 52.2487 91.6539 51.922 91.3086 51.642C90.9633 51.3527 90.5059 51.208 89.9366 51.208C89.4046 51.208 88.9706 51.348 88.6346 51.628C88.2986 51.8987 88.1306 52.2813 88.1306 52.776C88.1306 53.1307 88.2286 53.42 88.4246 53.644C88.6299 53.868 88.8773 54.0407 89.1666 54.162C89.4653 54.274 89.8806 54.4047 90.4126 54.554C91.0566 54.7313 91.5746 54.9087 91.9666 55.086C92.3586 55.254 92.6946 55.52 92.9746 55.884C93.2546 56.2387 93.3946 56.724 93.3946 57.34C93.3946 57.816 93.2686 58.264 93.0166 58.684C92.7646 59.104 92.3913 59.4447 91.8966 59.706C91.4019 59.9673 90.8186 60.098 90.1466 60.098ZM94.7934 56.136C94.7934 55.352 94.9521 54.666 95.2694 54.078C95.5867 53.4807 96.0207 53.0187 96.5714 52.692C97.1314 52.3653 97.7521 52.202 98.4334 52.202C99.1054 52.202 99.6887 52.3467 100.183 52.636C100.678 52.9253 101.047 53.2893 101.289 53.728V52.328H102.577V60H101.289V58.572C101.037 59.02 100.659 59.3933 100.155 59.692C99.6607 59.9813 99.0821 60.126 98.4194 60.126C97.7381 60.126 97.1221 59.958 96.5714 59.622C96.0207 59.286 95.5867 58.8147 95.2694 58.208C94.9521 57.6013 94.7934 56.9107 94.7934 56.136ZM101.289 56.15C101.289 55.5713 101.173 55.0673 100.939 54.638C100.706 54.2087 100.389 53.882 99.9874 53.658C99.5954 53.4247 99.1614 53.308 98.6854 53.308C98.2094 53.308 97.7754 53.42 97.3834 53.644C96.9914 53.868 96.6787 54.1947 96.4454 54.624C96.2121 55.0533 96.0954 55.5573 96.0954 56.136C96.0954 56.724 96.2121 57.2373 96.4454 57.676C96.6787 58.1053 96.9914 58.4367 97.3834 58.67C97.7754 58.894 98.2094 59.006 98.6854 59.006C99.1614 59.006 99.5954 58.894 99.9874 58.67C100.389 58.4367 100.706 58.1053 100.939 57.676C101.173 57.2373 101.289 56.7287 101.289 56.15ZM111.534 52.328V60H110.26V58.866C110.018 59.258 109.677 59.566 109.238 59.79C108.809 60.0047 108.333 60.112 107.81 60.112C107.213 60.112 106.676 59.9907 106.2 59.748C105.724 59.496 105.346 59.1227 105.066 58.628C104.796 58.1333 104.66 57.5313 104.66 56.822V52.328H105.92V56.654C105.92 57.41 106.112 57.9933 106.494 58.404C106.877 58.8053 107.4 59.006 108.062 59.006C108.744 59.006 109.28 58.796 109.672 58.376C110.064 57.956 110.26 57.3447 110.26 56.542V52.328H111.534ZM113.209 56.136C113.209 55.352 113.368 54.666 113.685 54.078C114.003 53.4807 114.437 53.0187 114.987 52.692C115.547 52.3653 116.173 52.202 116.863 52.202C117.461 52.202 118.016 52.342 118.529 52.622C119.043 52.8927 119.435 53.252 119.705 53.7V49.64H120.993V60H119.705V58.558C119.453 59.0153 119.08 59.3933 118.585 59.692C118.091 59.9813 117.512 60.126 116.849 60.126C116.168 60.126 115.547 59.958 114.987 59.622C114.437 59.286 114.003 58.8147 113.685 58.208C113.368 57.6013 113.209 56.9107 113.209 56.136ZM119.705 56.15C119.705 55.5713 119.589 55.0673 119.355 54.638C119.122 54.2087 118.805 53.882 118.403 53.658C118.011 53.4247 117.577 53.308 117.101 53.308C116.625 53.308 116.191 53.42 115.799 53.644C115.407 53.868 115.095 54.1947 114.861 54.624C114.628 55.0533 114.511 55.5573 114.511 56.136C114.511 56.724 114.628 57.2373 114.861 57.676C115.095 58.1053 115.407 58.4367 115.799 58.67C116.191 58.894 116.625 59.006 117.101 59.006C117.577 59.006 118.011 58.894 118.403 58.67C118.805 58.4367 119.122 58.1053 119.355 57.676C119.589 57.2373 119.705 56.7287 119.705 56.15ZM128.125 50.242V56.416C128.125 57.284 128.335 57.928 128.755 58.348C129.184 58.768 129.777 58.978 130.533 58.978C131.279 58.978 131.863 58.768 132.283 58.348C132.712 57.928 132.927 57.284 132.927 56.416V50.242H134.201V56.402C134.201 57.214 134.037 57.9 133.711 58.46C133.384 59.0107 132.941 59.4213 132.381 59.692C131.83 59.9627 131.209 60.098 130.519 60.098C129.828 60.098 129.203 59.9627 128.643 59.692C128.092 59.4213 127.653 59.0107 127.327 58.46C127.009 57.9 126.851 57.214 126.851 56.402V50.242H128.125ZM140.064 52.188C140.997 52.188 141.753 52.4727 142.332 53.042C142.911 53.602 143.2 54.414 143.2 55.478V60H141.94V55.66C141.94 54.8947 141.749 54.3113 141.366 53.91C140.983 53.4993 140.461 53.294 139.798 53.294C139.126 53.294 138.589 53.504 138.188 53.924C137.796 54.344 137.6 54.9553 137.6 55.758V60H136.326V52.328H137.6V53.42C137.852 53.028 138.193 52.7247 138.622 52.51C139.061 52.2953 139.541 52.188 140.064 52.188ZM145.939 51.082C145.696 51.082 145.491 50.998 145.323 50.83C145.155 50.662 145.071 50.4567 145.071 50.214C145.071 49.9713 145.155 49.766 145.323 49.598C145.491 49.43 145.696 49.346 145.939 49.346C146.172 49.346 146.368 49.43 146.527 49.598C146.695 49.766 146.779 49.9713 146.779 50.214C146.779 50.4567 146.695 50.662 146.527 50.83C146.368 50.998 146.172 51.082 145.939 51.082ZM146.555 52.328V60H145.281V52.328H146.555ZM151.582 58.824L153.962 52.328H155.32L152.31 60H150.826L147.816 52.328H149.188L151.582 58.824ZM163.574 55.87C163.574 56.1127 163.56 56.3693 163.532 56.64H157.4C157.447 57.396 157.703 57.9887 158.17 58.418C158.646 58.838 159.22 59.048 159.892 59.048C160.443 59.048 160.9 58.922 161.264 58.67C161.637 58.4087 161.899 58.0633 162.048 57.634H163.42C163.215 58.3713 162.804 58.9733 162.188 59.44C161.572 59.8973 160.807 60.126 159.892 60.126C159.164 60.126 158.511 59.9627 157.932 59.636C157.363 59.3093 156.915 58.8473 156.588 58.25C156.261 57.6433 156.098 56.9433 156.098 56.15C156.098 55.3567 156.257 54.6613 156.574 54.064C156.891 53.4667 157.335 53.0093 157.904 52.692C158.483 52.3653 159.145 52.202 159.892 52.202C160.62 52.202 161.264 52.3607 161.824 52.678C162.384 52.9953 162.813 53.434 163.112 53.994C163.42 54.5447 163.574 55.17 163.574 55.87ZM162.258 55.604C162.258 55.1187 162.151 54.7033 161.936 54.358C161.721 54.0033 161.427 53.7373 161.054 53.56C160.69 53.3733 160.284 53.28 159.836 53.28C159.192 53.28 158.641 53.4853 158.184 53.896C157.736 54.3067 157.479 54.876 157.414 55.604H162.258ZM166.53 53.574C166.754 53.1353 167.071 52.7947 167.482 52.552C167.902 52.3093 168.41 52.188 169.008 52.188V53.504H168.672C167.244 53.504 166.53 54.2787 166.53 55.828V60H165.256V52.328H166.53V53.574ZM173.194 60.126C172.606 60.126 172.079 60.028 171.612 59.832C171.146 59.6267 170.777 59.3467 170.506 58.992C170.236 58.628 170.086 58.2127 170.058 57.746H171.374C171.412 58.1287 171.589 58.4413 171.906 58.684C172.233 58.9267 172.658 59.048 173.18 59.048C173.666 59.048 174.048 58.9407 174.328 58.726C174.608 58.5113 174.748 58.2407 174.748 57.914C174.748 57.578 174.599 57.3307 174.3 57.172C174.002 57.004 173.54 56.8407 172.914 56.682C172.345 56.5327 171.878 56.3833 171.514 56.234C171.16 56.0753 170.852 55.8467 170.59 55.548C170.338 55.24 170.212 54.8387 170.212 54.344C170.212 53.952 170.329 53.5927 170.562 53.266C170.796 52.9393 171.127 52.6827 171.556 52.496C171.986 52.3 172.476 52.202 173.026 52.202C173.876 52.202 174.562 52.4167 175.084 52.846C175.607 53.2753 175.887 53.8633 175.924 54.61H174.65C174.622 54.2087 174.459 53.8867 174.16 53.644C173.871 53.4013 173.479 53.28 172.984 53.28C172.527 53.28 172.163 53.378 171.892 53.574C171.622 53.77 171.486 54.0267 171.486 54.344C171.486 54.596 171.566 54.806 171.724 54.974C171.892 55.1327 172.098 55.2633 172.34 55.366C172.592 55.4593 172.938 55.5667 173.376 55.688C173.927 55.8373 174.375 55.9867 174.72 56.136C175.066 56.276 175.36 56.4907 175.602 56.78C175.854 57.0693 175.985 57.4473 175.994 57.914C175.994 58.334 175.878 58.712 175.644 59.048C175.411 59.384 175.08 59.65 174.65 59.846C174.23 60.0327 173.745 60.126 173.194 60.126ZM178.451 51.082C178.208 51.082 178.003 50.998 177.835 50.83C177.667 50.662 177.583 50.4567 177.583 50.214C177.583 49.9713 177.667 49.766 177.835 49.598C178.003 49.43 178.208 49.346 178.451 49.346C178.684 49.346 178.88 49.43 179.039 49.598C179.207 49.766 179.291 49.9713 179.291 50.214C179.291 50.4567 179.207 50.662 179.039 50.83C178.88 50.998 178.684 51.082 178.451 51.082ZM179.067 52.328V60H177.793V52.328H179.067ZM182.792 53.378V57.9C182.792 58.2733 182.871 58.5393 183.03 58.698C183.189 58.8473 183.464 58.922 183.856 58.922H184.794V60H183.646C182.937 60 182.405 59.8367 182.05 59.51C181.695 59.1833 181.518 58.6467 181.518 57.9V53.378H180.524V52.328H181.518V50.396H182.792V52.328H184.794V53.378H182.792ZM192.946 52.328L188.326 63.612H187.01L188.522 59.916L185.428 52.328H186.842L189.25 58.544L191.63 52.328H192.946Z" fill="black"/>
<path d="M204.324 61.4H203.344V48.94H204.324V61.4Z" fill="#B8B8B8"/>
<path d="M218.088 60.098C217.444 60.098 216.875 59.986 216.38 59.762C215.895 59.538 215.512 59.2253 215.232 58.824C214.952 58.4227 214.803 57.9747 214.784 57.48H215.82C215.867 57.956 216.077 58.376 216.45 58.74C216.823 59.0947 217.369 59.272 218.088 59.272C218.751 59.272 219.273 59.104 219.656 58.768C220.048 58.4227 220.244 57.9887 220.244 57.466C220.244 57.046 220.137 56.71 219.922 56.458C219.707 56.1967 219.441 56.0053 219.124 55.884C218.807 55.7533 218.368 55.6133 217.808 55.464C217.155 55.2867 216.637 55.114 216.254 54.946C215.871 54.778 215.545 54.5167 215.274 54.162C215.003 53.8073 214.868 53.3267 214.868 52.72C214.868 52.216 214.999 51.768 215.26 51.376C215.521 50.9747 215.89 50.662 216.366 50.438C216.842 50.214 217.388 50.102 218.004 50.102C218.909 50.102 219.637 50.326 220.188 50.774C220.748 51.2127 221.07 51.782 221.154 52.482H220.09C220.025 52.0807 219.805 51.726 219.432 51.418C219.059 51.1007 218.555 50.942 217.92 50.942C217.332 50.942 216.842 51.1007 216.45 51.418C216.058 51.726 215.862 52.1507 215.862 52.692C215.862 53.1027 215.969 53.434 216.184 53.686C216.399 53.938 216.665 54.1293 216.982 54.26C217.309 54.3907 217.747 54.5307 218.298 54.68C218.933 54.8573 219.446 55.0347 219.838 55.212C220.23 55.38 220.561 55.6413 220.832 55.996C221.103 56.3507 221.238 56.8267 221.238 57.424C221.238 57.8813 221.117 58.3153 220.874 58.726C220.631 59.1367 220.272 59.468 219.796 59.72C219.32 59.972 218.751 60.098 218.088 60.098ZM222.684 56.164C222.684 55.38 222.838 54.694 223.146 54.106C223.463 53.5087 223.897 53.0513 224.448 52.734C225.008 52.4073 225.638 52.244 226.338 52.244C227.066 52.244 227.691 52.412 228.214 52.748C228.746 53.084 229.128 53.5133 229.362 54.036V52.356H230.342V60H229.362V58.306C229.119 58.8287 228.732 59.2627 228.2 59.608C227.677 59.944 227.052 60.112 226.324 60.112C225.633 60.112 225.008 59.9487 224.448 59.622C223.897 59.2953 223.463 58.8333 223.146 58.236C222.838 57.6387 222.684 56.948 222.684 56.164ZM229.362 56.178C229.362 55.562 229.236 55.0207 228.984 54.554C228.732 54.0873 228.386 53.728 227.948 53.476C227.518 53.224 227.042 53.098 226.52 53.098C225.978 53.098 225.493 53.2193 225.064 53.462C224.634 53.7047 224.294 54.0593 224.042 54.526C223.799 54.9833 223.678 55.5293 223.678 56.164C223.678 56.7893 223.799 57.34 224.042 57.816C224.294 58.2827 224.634 58.642 225.064 58.894C225.493 59.1367 225.978 59.258 226.52 59.258C227.042 59.258 227.518 59.132 227.948 58.88C228.386 58.628 228.732 58.2687 228.984 57.802C229.236 57.3353 229.362 56.794 229.362 56.178ZM239.201 52.356V60H238.221V58.656C237.997 59.132 237.652 59.496 237.185 59.748C236.718 60 236.196 60.126 235.617 60.126C234.702 60.126 233.956 59.846 233.377 59.286C232.798 58.7167 232.509 57.8953 232.509 56.822V52.356H233.475V56.71C233.475 57.5407 233.68 58.1753 234.091 58.614C234.511 59.0527 235.08 59.272 235.799 59.272C236.536 59.272 237.124 59.0387 237.563 58.572C238.002 58.1053 238.221 57.4193 238.221 56.514V52.356H239.201ZM240.99 56.164C240.99 55.38 241.149 54.694 241.466 54.106C241.784 53.5087 242.218 53.0513 242.768 52.734C243.328 52.4073 243.958 52.244 244.658 52.244C245.33 52.244 245.937 52.4073 246.478 52.734C247.02 53.0607 247.416 53.4853 247.668 54.008V49.64H248.648V60H247.668V58.292C247.435 58.824 247.052 59.2627 246.52 59.608C245.988 59.944 245.363 60.112 244.644 60.112C243.944 60.112 243.314 59.9487 242.754 59.622C242.204 59.2953 241.77 58.8333 241.452 58.236C241.144 57.6387 240.99 56.948 240.99 56.164ZM247.668 56.178C247.668 55.562 247.542 55.0207 247.29 54.554C247.038 54.0873 246.693 53.728 246.254 53.476C245.825 53.224 245.349 53.098 244.826 53.098C244.285 53.098 243.8 53.2193 243.37 53.462C242.941 53.7047 242.6 54.0593 242.348 54.526C242.106 54.9833 241.984 55.5293 241.984 56.164C241.984 56.7893 242.106 57.34 242.348 57.816C242.6 58.2827 242.941 58.642 243.37 58.894C243.8 59.1367 244.285 59.258 244.826 59.258C245.349 59.258 245.825 59.132 246.254 58.88C246.693 58.628 247.038 58.2687 247.29 57.802C247.542 57.3353 247.668 56.794 247.668 56.178ZM251.376 50.914C251.18 50.914 251.012 50.844 250.872 50.704C250.732 50.564 250.662 50.3913 250.662 50.186C250.662 49.9807 250.732 49.8127 250.872 49.682C251.012 49.542 251.18 49.472 251.376 49.472C251.572 49.472 251.74 49.542 251.88 49.682C252.02 49.8127 252.09 49.9807 252.09 50.186C252.09 50.3913 252.02 50.564 251.88 50.704C251.74 50.844 251.572 50.914 251.376 50.914ZM251.866 52.356V60H250.886V52.356H251.866ZM263.597 57.676H259.145L258.291 60H257.255L260.825 50.34H261.931L265.487 60H264.451L263.597 57.676ZM263.303 56.864L261.371 51.572L259.439 56.864H263.303ZM268.039 53.714C268.254 53.238 268.581 52.8693 269.019 52.608C269.467 52.3467 270.013 52.216 270.657 52.216V53.238H270.391C269.682 53.238 269.113 53.4293 268.683 53.812C268.254 54.1947 268.039 54.834 268.039 55.73V60H267.059V52.356H268.039V53.714ZM271.684 56.164C271.684 55.38 271.838 54.694 272.146 54.106C272.463 53.5087 272.897 53.0513 273.448 52.734C274.008 52.4073 274.638 52.244 275.338 52.244C276.066 52.244 276.691 52.412 277.214 52.748C277.746 53.084 278.128 53.5133 278.362 54.036V52.356H279.342V60H278.362V58.306C278.119 58.8287 277.732 59.2627 277.2 59.608C276.677 59.944 276.052 60.112 275.324 60.112C274.633 60.112 274.008 59.9487 273.448 59.622C272.897 59.2953 272.463 58.8333 272.146 58.236C271.838 57.6387 271.684 56.948 271.684 56.164ZM278.362 56.178C278.362 55.562 278.236 55.0207 277.984 54.554C277.732 54.0873 277.386 53.728 276.948 53.476C276.518 53.224 276.042 53.098 275.52 53.098C274.978 53.098 274.493 53.2193 274.064 53.462C273.634 53.7047 273.294 54.0593 273.042 54.526C272.799 54.9833 272.678 55.5293 272.678 56.164C272.678 56.7893 272.799 57.34 273.042 57.816C273.294 58.2827 273.634 58.642 274.064 58.894C274.493 59.1367 274.978 59.258 275.52 59.258C276.042 59.258 276.518 59.132 276.948 58.88C277.386 58.628 277.732 58.2687 277.984 57.802C278.236 57.3353 278.362 56.794 278.362 56.178ZM282.545 54.05C282.797 53.518 283.184 53.084 283.707 52.748C284.239 52.412 284.864 52.244 285.583 52.244C286.283 52.244 286.908 52.4073 287.459 52.734C288.01 53.0513 288.439 53.5087 288.747 54.106C289.064 54.694 289.223 55.38 289.223 56.164C289.223 56.948 289.064 57.6387 288.747 58.236C288.439 58.8333 288.005 59.2953 287.445 59.622C286.894 59.9487 286.274 60.112 285.583 60.112C284.855 60.112 284.225 59.9487 283.693 59.622C283.17 59.286 282.788 58.852 282.545 58.32V60H281.579V49.64H282.545V54.05ZM288.229 56.164C288.229 55.5293 288.103 54.9833 287.851 54.526C287.608 54.0593 287.272 53.7047 286.843 53.462C286.414 53.2193 285.928 53.098 285.387 53.098C284.864 53.098 284.384 53.224 283.945 53.476C283.516 53.728 283.175 54.0873 282.923 54.554C282.671 55.0207 282.545 55.562 282.545 56.178C282.545 56.794 282.671 57.3353 282.923 57.802C283.175 58.2687 283.516 58.628 283.945 58.88C284.384 59.132 284.864 59.258 285.387 59.258C285.928 59.258 286.414 59.1367 286.843 58.894C287.272 58.642 287.608 58.2827 287.851 57.816C288.103 57.34 288.229 56.7893 288.229 56.164ZM291.516 50.914C291.32 50.914 291.152 50.844 291.012 50.704C290.872 50.564 290.802 50.3913 290.802 50.186C290.802 49.9807 290.872 49.8127 291.012 49.682C291.152 49.542 291.32 49.472 291.516 49.472C291.712 49.472 291.88 49.542 292.02 49.682C292.16 49.8127 292.23 49.9807 292.23 50.186C292.23 50.3913 292.16 50.564 292.02 50.704C291.88 50.844 291.712 50.914 291.516 50.914ZM292.006 52.356V60H291.026V52.356H292.006ZM293.777 56.164C293.777 55.38 293.931 54.694 294.239 54.106C294.557 53.5087 294.991 53.0513 295.541 52.734C296.101 52.4073 296.731 52.244 297.431 52.244C298.159 52.244 298.785 52.412 299.307 52.748C299.839 53.084 300.222 53.5133 300.455 54.036V52.356H301.435V60H300.455V58.306C300.213 58.8287 299.825 59.2627 299.293 59.608C298.771 59.944 298.145 60.112 297.417 60.112C296.727 60.112 296.101 59.9487 295.541 59.622C294.991 59.2953 294.557 58.8333 294.239 58.236C293.931 57.6387 293.777 56.948 293.777 56.164ZM300.455 56.178C300.455 55.562 300.329 55.0207 300.077 54.554C299.825 54.0873 299.48 53.728 299.041 53.476C298.612 53.224 298.136 53.098 297.613 53.098C297.072 53.098 296.587 53.2193 296.157 53.462C295.728 53.7047 295.387 54.0593 295.135 54.526C294.893 54.9833 294.771 55.5293 294.771 56.164C294.771 56.7893 294.893 57.34 295.135 57.816C295.387 58.2827 295.728 58.642 296.157 58.894C296.587 59.1367 297.072 59.258 297.613 59.258C298.136 59.258 298.612 59.132 299.041 58.88C299.48 58.628 299.825 58.2687 300.077 57.802C300.329 57.3353 300.455 56.794 300.455 56.178Z" fill="#B8B8B8"/>
<path d="M313.324 61.4H312.344V48.94H313.324V61.4Z" fill="#B8B8B8"/>
<path d="M328.642 50.214V57.62C328.642 58.3667 328.413 58.9687 327.956 59.426C327.499 59.874 326.887 60.098 326.122 60.098C325.329 60.098 324.694 59.86 324.218 59.384C323.751 58.8987 323.518 58.2453 323.518 57.424H324.512C324.521 57.956 324.652 58.39 324.904 58.726C325.165 59.062 325.571 59.23 326.122 59.23C326.645 59.23 327.032 59.076 327.284 58.768C327.536 58.46 327.662 58.0773 327.662 57.62V50.214H328.642ZM330.658 56.164C330.658 55.38 330.812 54.694 331.12 54.106C331.438 53.5087 331.872 53.0513 332.422 52.734C332.982 52.4073 333.612 52.244 334.312 52.244C335.04 52.244 335.666 52.412 336.188 52.748C336.72 53.084 337.103 53.5133 337.336 54.036V52.356H338.316V60H337.336V58.306C337.094 58.8287 336.706 59.2627 336.174 59.608C335.652 59.944 335.026 60.112 334.298 60.112C333.608 60.112 332.982 59.9487 332.422 59.622C331.872 59.2953 331.438 58.8333 331.12 58.236C330.812 57.6387 330.658 56.948 330.658 56.164ZM337.336 56.178C337.336 55.562 337.21 55.0207 336.958 54.554C336.706 54.0873 336.361 53.728 335.922 53.476C335.493 53.224 335.017 53.098 334.494 53.098C333.953 53.098 333.468 53.2193 333.038 53.462C332.609 53.7047 332.268 54.0593 332.016 54.526C331.774 54.9833 331.652 55.5293 331.652 56.164C331.652 56.7893 331.774 57.34 332.016 57.816C332.268 58.2827 332.609 58.642 333.038 58.894C333.468 59.1367 333.953 59.258 334.494 59.258C335.017 59.258 335.493 59.132 335.922 58.88C336.361 58.628 336.706 58.2687 336.958 57.802C337.21 57.3353 337.336 56.794 337.336 56.178ZM344.138 52.216C345.052 52.216 345.799 52.5007 346.378 53.07C346.956 53.63 347.246 54.4467 347.246 55.52V60H346.28V55.632C346.28 54.8013 346.07 54.1667 345.65 53.728C345.239 53.2893 344.674 53.07 343.956 53.07C343.218 53.07 342.63 53.3033 342.192 53.77C341.753 54.2367 341.534 54.9227 341.534 55.828V60H340.554V52.356H341.534V53.658C341.776 53.1913 342.126 52.8367 342.584 52.594C343.041 52.342 343.559 52.216 344.138 52.216ZM352.849 59.23C354.566 57.942 355.891 56.7893 356.825 55.772C357.767 54.7453 358.239 53.742 358.239 52.762C358.239 52.118 358.075 51.6047 357.749 51.222C357.431 50.83 356.909 50.634 356.181 50.634C355.471 50.634 354.921 50.858 354.529 51.306C354.146 51.7447 353.931 52.3327 353.885 53.07H352.933C352.989 52.034 353.306 51.2313 353.885 50.662C354.473 50.0833 355.238 49.794 356.181 49.794C357.086 49.794 357.819 50.0507 358.379 50.564C358.939 51.068 359.219 51.7867 359.219 52.72C359.219 53.8493 358.747 54.946 357.805 56.01C356.871 57.0647 355.719 58.096 354.347 59.104H359.527V59.93H352.849V59.23ZM361.056 54.89C361.056 53.2847 361.304 52.0387 361.798 51.152C362.293 50.2653 363.18 49.822 364.458 49.822C365.737 49.822 366.624 50.2653 367.118 51.152C367.613 52.0387 367.86 53.2847 367.86 54.89C367.86 56.5233 367.613 57.788 367.118 58.684C366.624 59.58 365.737 60.028 364.458 60.028C363.17 60.028 362.279 59.58 361.784 58.684C361.299 57.788 361.056 56.5233 361.056 54.89ZM366.894 54.89C366.894 54.022 366.834 53.2893 366.712 52.692C366.591 52.0947 366.353 51.614 365.998 51.25C365.644 50.886 365.13 50.704 364.458 50.704C363.786 50.704 363.273 50.886 362.918 51.25C362.564 51.614 362.326 52.0947 362.204 52.692C362.083 53.2893 362.022 54.022 362.022 54.89C362.022 55.786 362.083 56.5373 362.204 57.144C362.326 57.7413 362.564 58.222 362.918 58.586C363.273 58.95 363.786 59.132 364.458 59.132C365.13 59.132 365.644 58.95 365.998 58.586C366.353 58.222 366.591 57.7413 366.712 57.144C366.834 56.5373 366.894 55.786 366.894 54.89ZM369.487 59.23C371.205 57.942 372.53 56.7893 373.463 55.772C374.406 54.7453 374.877 53.742 374.877 52.762C374.877 52.118 374.714 51.6047 374.387 51.222C374.07 50.83 373.547 50.634 372.819 50.634C372.11 50.634 371.559 50.858 371.167 51.306C370.785 51.7447 370.57 52.3327 370.523 53.07H369.571C369.627 52.034 369.945 51.2313 370.523 50.662C371.111 50.0833 371.877 49.794 372.819 49.794C373.725 49.794 374.457 50.0507 375.017 50.564C375.577 51.068 375.857 51.7867 375.857 52.72C375.857 53.8493 375.386 54.946 374.443 56.01C373.51 57.0647 372.357 58.096 370.985 59.104H376.165V59.93H369.487V59.23ZM377.499 59.23C379.216 57.942 380.542 56.7893 381.475 55.772C382.418 54.7453 382.889 53.742 382.889 52.762C382.889 52.118 382.726 51.6047 382.399 51.222C382.082 50.83 381.559 50.634 380.831 50.634C380.122 50.634 379.571 50.858 379.179 51.306C378.796 51.7447 378.582 52.3327 378.535 53.07H377.583C377.639 52.034 377.956 51.2313 378.535 50.662C379.123 50.0833 379.888 49.794 380.831 49.794C381.736 49.794 382.469 50.0507 383.029 50.564C383.589 51.068 383.869 51.7867 383.869 52.72C383.869 53.8493 383.398 54.946 382.455 56.01C381.522 57.0647 380.369 58.096 378.997 59.104H384.177V59.93H377.499V59.23Z" fill="#B8B8B8"/>
<path d="M398.866 54.4V55.226H393.42V54.4H398.866Z" fill="#B8B8B8"/>
<path d="M414.642 50.214V57.62C414.642 58.3667 414.413 58.9687 413.956 59.426C413.499 59.874 412.887 60.098 412.122 60.098C411.329 60.098 410.694 59.86 410.218 59.384C409.751 58.8987 409.518 58.2453 409.518 57.424H410.512C410.521 57.956 410.652 58.39 410.904 58.726C411.165 59.062 411.571 59.23 412.122 59.23C412.645 59.23 413.032 59.076 413.284 58.768C413.536 58.46 413.662 58.0773 413.662 57.62V50.214H414.642ZM416.658 56.164C416.658 55.38 416.812 54.694 417.12 54.106C417.438 53.5087 417.872 53.0513 418.422 52.734C418.982 52.4073 419.612 52.244 420.312 52.244C421.04 52.244 421.666 52.412 422.188 52.748C422.72 53.084 423.103 53.5133 423.336 54.036V52.356H424.316V60H423.336V58.306C423.094 58.8287 422.706 59.2627 422.174 59.608C421.652 59.944 421.026 60.112 420.298 60.112C419.608 60.112 418.982 59.9487 418.422 59.622C417.872 59.2953 417.438 58.8333 417.12 58.236C416.812 57.6387 416.658 56.948 416.658 56.164ZM423.336 56.178C423.336 55.562 423.21 55.0207 422.958 54.554C422.706 54.0873 422.361 53.728 421.922 53.476C421.493 53.224 421.017 53.098 420.494 53.098C419.953 53.098 419.468 53.2193 419.038 53.462C418.609 53.7047 418.268 54.0593 418.016 54.526C417.774 54.9833 417.652 55.5293 417.652 56.164C417.652 56.7893 417.774 57.34 418.016 57.816C418.268 58.2827 418.609 58.642 419.038 58.894C419.468 59.1367 419.953 59.258 420.494 59.258C421.017 59.258 421.493 59.132 421.922 58.88C422.361 58.628 422.706 58.2687 422.958 57.802C423.21 57.3353 423.336 56.794 423.336 56.178ZM430.138 52.216C431.052 52.216 431.799 52.5007 432.378 53.07C432.956 53.63 433.246 54.4467 433.246 55.52V60H432.28V55.632C432.28 54.8013 432.07 54.1667 431.65 53.728C431.239 53.2893 430.674 53.07 429.956 53.07C429.218 53.07 428.63 53.3033 428.192 53.77C427.753 54.2367 427.534 54.9227 427.534 55.828V60H426.554V52.356H427.534V53.658C427.776 53.1913 428.126 52.8367 428.584 52.594C429.041 52.342 429.559 52.216 430.138 52.216ZM438.849 59.23C440.566 57.942 441.891 56.7893 442.825 55.772C443.767 54.7453 444.239 53.742 444.239 52.762C444.239 52.118 444.075 51.6047 443.749 51.222C443.431 50.83 442.909 50.634 442.181 50.634C441.471 50.634 440.921 50.858 440.529 51.306C440.146 51.7447 439.931 52.3327 439.885 53.07H438.933C438.989 52.034 439.306 51.2313 439.885 50.662C440.473 50.0833 441.238 49.794 442.181 49.794C443.086 49.794 443.819 50.0507 444.379 50.564C444.939 51.068 445.219 51.7867 445.219 52.72C445.219 53.8493 444.747 54.946 443.805 56.01C442.871 57.0647 441.719 58.096 440.347 59.104H445.527V59.93H438.849V59.23ZM447.056 54.89C447.056 53.2847 447.304 52.0387 447.798 51.152C448.293 50.2653 449.18 49.822 450.458 49.822C451.737 49.822 452.624 50.2653 453.118 51.152C453.613 52.0387 453.86 53.2847 453.86 54.89C453.86 56.5233 453.613 57.788 453.118 58.684C452.624 59.58 451.737 60.028 450.458 60.028C449.17 60.028 448.279 59.58 447.784 58.684C447.299 57.788 447.056 56.5233 447.056 54.89ZM452.894 54.89C452.894 54.022 452.834 53.2893 452.712 52.692C452.591 52.0947 452.353 51.614 451.998 51.25C451.644 50.886 451.13 50.704 450.458 50.704C449.786 50.704 449.273 50.886 448.918 51.25C448.564 51.614 448.326 52.0947 448.204 52.692C448.083 53.2893 448.022 54.022 448.022 54.89C448.022 55.786 448.083 56.5373 448.204 57.144C448.326 57.7413 448.564 58.222 448.918 58.586C449.273 58.95 449.786 59.132 450.458 59.132C451.13 59.132 451.644 58.95 451.998 58.586C452.353 58.222 452.591 57.7413 452.712 57.144C452.834 56.5373 452.894 55.786 452.894 54.89ZM455.487 59.23C457.205 57.942 458.53 56.7893 459.463 55.772C460.406 54.7453 460.877 53.742 460.877 52.762C460.877 52.118 460.714 51.6047 460.387 51.222C460.07 50.83 459.547 50.634 458.819 50.634C458.11 50.634 457.559 50.858 457.167 51.306C456.785 51.7447 456.57 52.3327 456.523 53.07H455.571C455.627 52.034 455.945 51.2313 456.523 50.662C457.111 50.0833 457.877 49.794 458.819 49.794C459.725 49.794 460.457 50.0507 461.017 50.564C461.577 51.068 461.857 51.7867 461.857 52.72C461.857 53.8493 461.386 54.946 460.443 56.01C459.51 57.0647 458.357 58.096 456.985 59.104H462.165V59.93H455.487V59.23ZM463.653 52.524C463.718 51.6747 464.045 51.0073 464.633 50.522C465.23 50.0273 466 49.78 466.943 49.78C467.568 49.78 468.105 49.892 468.553 50.116C469.001 50.34 469.337 50.648 469.561 51.04C469.794 51.4227 469.911 51.8567 469.911 52.342C469.911 52.93 469.738 53.4387 469.393 53.868C469.048 54.2973 468.558 54.5633 467.923 54.666V54.736C468.586 54.8667 469.113 55.156 469.505 55.604C469.897 56.0427 470.093 56.6213 470.093 57.34C470.093 58.1427 469.822 58.8007 469.281 59.314C468.749 59.818 467.974 60.07 466.957 60.07C465.986 60.07 465.188 59.818 464.563 59.314C463.938 58.8007 463.578 58.0773 463.485 57.144H464.437C464.521 57.7693 464.782 58.278 465.221 58.67C465.66 59.0527 466.238 59.244 466.957 59.244C467.666 59.244 468.208 59.0573 468.581 58.684C468.964 58.3107 469.155 57.8347 469.155 57.256C469.155 55.8373 468.133 55.128 466.089 55.128H465.781V54.302H466.103C468.007 54.302 468.959 53.6813 468.959 52.44C468.959 51.8987 468.782 51.4647 468.427 51.138C468.072 50.802 467.568 50.634 466.915 50.634C466.28 50.634 465.753 50.802 465.333 51.138C464.922 51.4647 464.68 51.9267 464.605 52.524H463.653Z" fill="#B8B8B8"/>
</svg>
